<svg version="1.1" xmlns="http://www.w3.org/2000/svg" viewBox="-294.91199989318847 -1566.080111694336 6816.512322998046 2381.568182373047"><desc>Created with Snap</desc><defs></defs><g><g transform="matrix(58.9056,0,0,58.9056,4388.3265,-1317.7857)"><g transform="translate(0,-1020.3622)"><path style="color: rgb(0, 0, 0); font: medium sans-serif; text-indent: 0px; text-align: start; text-decoration: none solid rgb(0, 0, 0); letter-spacing: normal; word-spacing: normal; text-transform: none; direction: ltr; writing-mode: lr-tb; baseline-shift: baseline; text-anchor: start; white-space: normal; clip-rule: nonzero; display: inline; overflow: visible; visibility: visible; opacity: 1; isolation: auto; mix-blend-mode: normal; color-interpolation: srgb; color-interpolation-filters: linearrgb; fill-opacity: 1; fill-rule: evenodd; stroke: none; stroke-width: 1px; stroke-linecap: butt; stroke-linejoin: miter; stroke-miterlimit: 4; stroke-dasharray: none; stroke-dashoffset: 0; stroke-opacity: 1; color-rendering: auto; image-rendering: auto; shape-rendering: auto; text-rendering: auto;" d="M 15 1 C 12.796783 1 11 2.7968 11 5 C 11 5.6546295 11.174294 6.2621942 11.455078 6.8085938 L 5.1347656 12.226562 C 4.7841998 12.082202 4.4012682 12 4 12 C 2.3490681 12 1 13.3491 1 15 C 1 16.651 2.3490681 18 4 18 C 4.3223201 18 4.6284069 17.934891 4.9199219 17.839844 L 10.457031 27.068359 C 10.170848 27.474845 10 27.968062 10 28.5 C 10 29.8748 11.12521 31 12.5 31 C 13.747095 31 14.780132 30.071238 14.962891 28.873047 L 25.037109 25.515625 C 25.449884 25.816605 25.953124 26 26.5 26 C 27.87479 26 29 24.8748 29 23.5 C 29 22.943704 28.810453 22.432176 28.5 22.015625 L 29.455078 9.6035156 C 30.370789 9.0885994 31 8.1207185 31 7 C 31 5.3491 29.650932 4 28 4 C 27.134284 4 26.357302 4.3758715 25.808594 4.9667969 L 18.839844 3.9453125 C 18.372859 2.2544815 16.835947 1 15 1 z M 15 2 C 16.662777 2 18 3.3373 18 5 C 18 6.6628 16.662777 8 15 8 C 13.337223 8 12 6.6628 12 5 C 12 3.3373 13.337223 2 15 2 z M 18.998047 4.9785156 L 25.21875 5.8925781 C 25.081111 6.2360264 25 6.6086946 25 7 C 25 7.9000535 25.408807 8.7010389 26.041016 9.2519531 L 19.875 15.417969 C 19.479439 15.155095 19.007772 15 18.5 15 C 17.509241 15 16.655742 15.588652 16.251953 16.429688 L 6.9414062 15.583984 C 6.9792633 15.39441 7 15.200338 7 15 C 7 14.124925 6.6138374 13.342483 6.0117188 12.792969 L 12.021484 7.640625 C 12.755152 8.4670166 13.812384 9 15 9 C 17.203217 9 19 7.2032 19 5 C 19 4.9926553 18.998087 4.9858513 18.998047 4.9785156 z M 28 5 C 29.110492 5 30 5.8895 30 7 C 30 8.1105 29.110492 9 28 9 C 26.889508 9 26 8.1105 26 7 C 26 5.8895 26.889508 5 28 5 z M 26.917969 9.7890625 C 27.254532 9.9204133 27.618193 10 28 10 C 28.145621 10 28.285576 9.9753505 28.425781 9.9550781 L 27.556641 21.244141 C 27.234205 21.091786 26.878567 21 26.5 21 C 25.967136 21 25.475247 21.171889 25.068359 21.458984 L 20.626953 18.792969 C 20.859124 18.413878 21 17.974607 21 17.5 C 21 16.992527 20.846572 16.518465 20.583984 16.123047 L 26.917969 9.7890625 z M 4 13 C 5.1104918 13 6 13.8895 6 15 C 6 16.1105 5.1104918 17 4 17 C 2.8895082 17 2 16.1105 2 15 C 2 13.8895 2.8895082 13 4 13 z M 18.5 16 C 19.334349 16 20 16.6657 20 17.5 C 20 18.3344 19.334349 19 18.5 19 C 17.665651 19 17 18.3344 17 17.5 C 17 16.6657 17.665651 16 18.5 16 z M 6.5527344 16.552734 L 16.009766 17.412109 C 16.008703 17.441867 16 17.469995 16 17.5 C 16 18.8748 17.12521 20 18.5 20 C 19.031925 20 19.523206 19.827189 19.929688 19.541016 L 24.371094 22.207031 C 24.13977 22.585631 24 23.026333 24 23.5 C 24 23.937372 24.122695 24.342517 24.322266 24.701172 L 14.900391 27.841797 C 14.608509 26.785121 13.646095 26 12.5 26 C 12.025542 26 11.586046 26.141008 11.207031 26.373047 L 5.8085938 17.375 C 6.1047653 17.148637 6.3574473 16.871712 6.5527344 16.552734 z M 26.5 22 C 27.334349 22 28 22.6657 28 23.5 C 28 24.3344 27.334349 25 26.5 25 C 25.665651 25 25 24.3344 25 23.5 C 25 22.6657 25.665651 22 26.5 22 z M 12.5 27 C 13.334349 27 14 27.6657 14 28.5 C 14 29.3344 13.334349 30 12.5 30 C 11.665651 30 11 29.3344 11 28.5 C 11 27.6657 11.665651 27 12.5 27 z " transform="translate(0,1020.3622)" fill="#7adac0"></path></g><desc>Created with Snap</desc><defs></defs></g><g><g transform="matrix(1.024,0,0,-1.024,0,0)"><path d="M387 -17Q347 -17 317 -1Q288 16 288 57Q288 83 301 115Q319 95 334 87Q350 79 368 79Q418 79 442 135Q467 191 467 259Q467 386 372 386Q345 386 326 383L244 0L100 0L236 636L384 656L337 434L343 434Q381 434 414 458Q447 483 467 520Q487 558 487 596Q487 642 454 673Q422 704 355 704Q294 704 236 676Q178 649 141 594Q105 539 105 461Q105 424 112 409Q119 395 119 393Q66 393 39 414Q12 436 12 485Q12 553 63 614Q114 675 198 712Q282 750 375 750Q445 750 493 728Q541 706 564 670Q588 634 588 591Q588 545 562 502Q536 459 488 432Q548 421 577 376Q606 332 606 271Q606 214 584 147Q563 80 513 31Q464 -17 387 -17ZM784 -6Q710 -6 669 32Q628 71 628 153Q628 222 655 305Q682 388 743 448Q804 509 898 509Q1008 509 1008 413Q1008 357 976 310Q944 263 891 234Q838 206 778 202Q776 172 776 162Q776 113 793 95Q810 78 848 78Q902 78 940 103Q979 128 1025 179L1059 179Q948 -6 784 -6ZM786 250Q823 252 856 276Q890 300 910 337Q931 374 931 415Q931 456 906 456Q870 456 835 393Q801 330 786 250ZM1139 -6Q1091 -6 1058 12Q1025 31 1009 60Q993 90 993 122Q993 155 1008 179Q1024 204 1046 215Q1085 285 1114 356Q1143 428 1169 511L1317 531Q1322 403 1334 254Q1339 194 1339 167Q1339 144 1335 129Q1382 156 1407 179L1449 179Q1385 105 1296 54Q1267 23 1224 8Q1182 -6 1139 -6ZM1107 73Q1144 73 1169 95Q1194 117 1194 166Q1194 196 1188 250Q1178 364 1175 403Q1151 324 1094 214Q1117 202 1117 179Q1117 160 1104 145Q1092 130 1073 130Q1052 130 1046 143Q1046 107 1060 90Q1075 73 1107 73ZM1506 -6Q1458 -6 1428 24Q1399 54 1399 114Q1399 139 1407 179L1467 460L1434 460L1442 500L1475 500L1505 638L1653 658L1619 500L1679 500L1671 460L1611 460L1547 160Q1543 145 1543 128Q1543 108 1552 99Q1562 91 1584 91Q1613 91 1638 115Q1663 140 1674 179L1716 179Q1679 71 1621 32Q1563 -6 1506 -6ZM2005 -6Q1947 -6 1914 23Q1882 53 1882 112Q1882 136 1887 160L1959 500L2103 500L2031 160Q2026 135 2026 124Q2026 91 2060 91Q2106 91 2145 149Q2185 207 2209 287Q2233 367 2233 425Q2231 420 2220 417Q2209 415 2201 415Q2184 415 2174 431Q2165 447 2165 466Q2165 490 2180 505Q2196 520 2227 520Q2260 520 2275 495Q2290 471 2290 433Q2290 343 2259 240Q2228 138 2164 66Q2100 -6 2005 -6ZM2472 554Q2439 554 2416 577Q2393 600 2393 633Q2393 666 2416 689Q2439 713 2472 713Q2505 713 2528 689Q2552 666 2552 633Q2552 600 2528 577Q2505 554 2472 554ZM2404 -6Q2356 -6 2326 24Q2297 54 2297 114Q2297 139 2305 179L2373 500L2517 500L2445 160Q2441 145 2441 128Q2441 108 2450 99Q2460 91 2482 91Q2511 91 2536 115Q2561 140 2572 179L2614 179Q2577 71 2519 32Q2461 -6 2404 -6ZM2692 -6Q2635 -6 2597 33Q2559 72 2559 155Q2559 229 2588 310Q2618 392 2676 448Q2735 505 2816 505Q2857 505 2877 491Q2897 477 2897 454L2897 450L2946 680L3094 700L2979 160Q2975 145 2975 128Q2975 108 2984 99Q2994 91 3016 91Q3044 91 3064 115Q3085 139 3097 179L3139 179Q3078 0 2938 0Q2897 0 2871 22Q2846 44 2840 86Q2814 46 2777 20Q2741 -6 2692 -6ZM2757 91Q2781 91 2805 113Q2830 135 2839 174L2839 179L2888 408Q2879 443 2847 443Q2807 443 2775 396Q2743 350 2725 284Q2707 219 2707 169Q2707 119 2721 105Q2736 91 2757 91ZM3240 -6Q3166 -6 3125 32Q3084 71 3084 153Q3084 222 3111 305Q3138 388 3199 448Q3260 509 3354 509Q3464 509 3464 413Q3464 357 3432 310Q3400 263 3347 234Q3294 206 3234 202Q3232 172 3232 162Q3232 113 3249 95Q3266 78 3304 78Q3358 78 3396 103Q3435 128 3481 179L3515 179Q3404 -6 3240 -6ZM3242 250Q3279 252 3312 276Q3346 300 3366 337Q3387 374 3387 415Q3387 456 3362 456Q3326 456 3291 393Q3257 330 3242 250ZM3627 -4Q3553 -4 3510 34Q3467 72 3467 154Q3467 222 3495 305Q3523 388 3585 448Q3647 509 3741 509Q3869 509 3869 349L3869 348Q3872 347 3880 347Q3913 347 3956 364Q3999 382 4034 407L4043 380Q4014 349 3967 327Q3921 306 3866 297Q3858 206 3825 138Q3792 70 3740 33Q3688 -4 3627 -4ZM3667 86Q3691 86 3715 113Q3739 141 3757 188Q3775 236 3783 294Q3756 300 3756 336Q3756 377 3787 390Q3785 423 3777 435Q3769 448 3749 448Q3716 448 3685 400Q3654 352 3635 285Q3616 218 3616 167Q3616 119 3627 102Q3638 86 3667 86Z" fill="#210070" style=""></path></g></g></g></svg>